<svg width="487" height="115" viewBox="0 0 487 115" fill="none" xmlns="http://www.w3.org/2000/svg">
<path d="M102.446 32.3781C106.378 32.9052 109.786 36.8584 110.048 40.8117L111.359 80.3438C111.621 84.5606 113.981 87.7231 116.865 87.7231C119.749 87.7231 122.895 91.1493 123.681 95.1025L126.041 106.962C126.827 110.915 124.206 114.341 120.011 114.341H63.6444C59.4496 114.341 56.3036 111.97 56.3036 108.807C56.3036 105.644 53.1576 103.536 48.9628 103.536C44.7681 103.536 41.0977 105.908 40.3112 109.071C39.5247 111.97 35.5922 114.605 31.6596 114.605H7.53998C3.34526 114.605 0.199219 111.179 0.199219 107.226V95.6296C0.199219 91.1493 2.29658 87.7231 5.18045 87.7231C8.06432 87.7231 11.4725 84.5606 13.0455 80.8709L35.5922 29.7427C37.1652 26.053 41.8843 23.4175 46.079 23.9446L102.446 32.3781ZM54.7306 62.4226C52.8954 58.7329 50.798 58.9964 50.0115 62.9497L46.079 80.3438C45.0303 84.297 47.652 87.7231 51.8467 87.7231H59.4496C63.6444 87.7231 65.4796 84.5606 63.6444 80.8709L54.7306 62.4226Z" fill="white"/>
<path d="M206.777 22.8923C210.971 22.8923 214.117 26.3185 214.117 30.2717L213.855 49.5107C213.855 53.7274 210.447 56.6264 206.514 55.8358L180.822 52.1461C176.889 51.619 173.481 52.9368 173.481 55.3087C173.481 57.6806 176.889 58.9984 180.822 58.4713L183.968 57.9442C187.9 57.4171 191.571 60.0526 191.833 64.2693L192.095 68.4861C192.357 72.7029 189.473 76.6561 185.541 77.7103L180.822 79.028C176.889 80.0822 173.743 81.927 173.743 82.9812C173.743 84.0354 176.889 84.5625 181.084 83.7719L198.911 80.0822C202.844 79.2915 205.728 81.927 204.941 85.8802L202.844 98.7941C202.32 102.747 198.387 106.173 194.192 106.173H137.302C133.107 106.173 129.174 102.747 128.388 98.7941L115.541 30.2717C114.755 26.3185 117.377 22.8923 121.571 22.8923H206.777Z" fill="white"/>
<path d="M291.474 22.8906C295.669 22.8906 298.815 26.3167 298.553 30.27L294.096 98.7924C293.834 103.009 293.572 106.435 293.834 106.435C293.834 106.435 290.688 106.435 286.493 106.435H281.25C277.055 106.435 273.909 103.009 273.909 99.0559L274.957 66.376C274.957 62.1592 273.909 62.1592 272.598 65.8489L260.276 99.583C258.965 103.536 254.246 106.699 250.314 106.699H212.823C208.628 106.699 206.007 103.536 207.055 99.3195L221.999 30.27C222.786 26.3167 226.98 22.8906 230.913 22.8906H291.474Z" fill="white"/>
<path d="M362.258 23.418C366.453 23.1544 370.648 26.0535 371.959 30.0067L395.03 99.3197C396.34 103.273 397.389 106.436 397.389 106.436C397.389 106.436 394.243 106.436 390.048 106.436H359.637C355.442 106.436 351.509 103.8 350.461 100.374C349.412 96.9478 345.48 94.3123 341.285 94.3123H332.895C328.701 94.3123 324.768 96.9478 323.719 100.374C322.671 103.8 318.476 106.436 314.543 106.436H307.989C303.794 106.436 300.648 103.009 300.648 99.0562L301.697 35.5412C301.697 31.3244 305.105 27.8983 309.3 27.3712L362.258 23.418ZM338.925 66.6398C337.614 62.6866 335.779 62.6866 334.468 66.6398L333.42 70.3295C332.109 74.2827 333.682 77.4453 336.828 77.4453C339.974 77.4453 341.547 74.2827 340.236 70.3295L338.925 66.6398Z" fill="white"/>
<path d="M384.015 30.2705C383.228 26.3173 385.85 22.8912 389.782 22.8912H397.91C402.104 22.8912 405.775 26.3173 406.037 30.2705L406.299 33.9602C406.561 38.1769 409.969 39.7582 413.378 37.6498L432.516 26.5808C436.186 24.4724 442.216 22.8912 446.411 22.8912H478.92C483.115 22.8912 486.261 26.3173 486.261 30.2705V99.0564C486.261 103.273 482.853 106.436 478.92 106.436H477.871C473.677 106.436 470.268 103.01 470.268 99.0564L469.22 56.0982C469.22 51.8814 467.909 51.8814 466.336 55.5711L449.033 99.5835C447.46 103.537 443.003 106.436 438.808 106.436H408.134C403.939 106.436 400.007 103.273 399.22 99.0564L384.015 30.2705ZM431.729 1.01669C435.662 0.226051 440.381 1.54379 441.954 4.17927C443.527 6.81474 441.954 10.2409 438.546 12.3492L417.834 24.4724C414.426 26.5808 410.232 24.9995 408.659 21.3099L405.512 13.667C403.939 9.97732 406.037 6.0241 409.969 5.23346L431.729 1.01669Z" fill="white"/>
</svg>
