<svg width="590" height="139" viewBox="0 0 590 139" fill="none" xmlns="http://www.w3.org/2000/svg">
<path d="M124.459 39.0607C129.226 39.6997 133.358 44.4922 133.676 49.2848L135.265 97.2103C135.583 102.322 138.444 106.156 141.94 106.156C145.436 106.156 149.25 110.31 150.203 115.103L153.064 129.48C154.017 134.273 150.839 138.426 145.754 138.426H77.4196C72.3342 138.426 68.5202 135.551 68.5202 131.717C68.5202 127.883 64.7062 125.327 59.6209 125.327C54.5356 125.327 50.0859 128.202 49.1324 132.036C48.1789 135.551 43.4114 138.746 38.6439 138.746H9.40324C4.31791 138.746 0.503906 134.592 0.503906 129.8V115.742C0.503906 110.31 3.04657 106.156 6.54274 106.156C10.0389 106.156 14.1707 102.322 16.0777 97.8493L43.4114 35.8656C45.3184 31.3926 51.0394 28.1975 56.1247 28.8365L124.459 39.0607ZM66.6132 75.4841C64.3884 71.011 61.8457 71.3305 60.8922 76.1231L56.1247 97.2103C54.8534 102.003 58.0317 106.156 63.1171 106.156H72.3342C77.4196 106.156 79.6444 102.322 77.4196 97.8493L66.6132 75.4841Z" fill="white"/>
<path d="M250.939 27.5601C256.024 27.5601 259.838 31.7136 259.838 36.5062L259.52 59.8299C259.52 64.942 255.388 68.4565 250.621 67.498L219.473 63.025C214.706 62.386 210.574 63.9835 210.574 66.859C210.574 69.7345 214.706 71.3321 219.473 70.693L223.287 70.054C228.055 69.415 232.504 72.6101 232.822 77.7221L233.14 82.8342C233.458 87.9462 229.962 92.7388 225.194 94.0168L219.473 95.6143C214.706 96.8923 210.892 99.1289 210.892 100.407C210.892 101.685 214.706 102.324 219.791 101.365L241.404 96.8923C246.171 95.9338 249.667 99.1289 248.714 103.921L246.171 119.577C245.536 124.37 240.768 128.523 235.683 128.523H166.713C161.628 128.523 156.86 124.37 155.907 119.577L140.333 36.5062C139.379 31.7136 142.558 27.5601 147.643 27.5601H250.939Z" fill="white"/>
<path d="M353.623 27.5586C358.708 27.5586 362.522 31.7121 362.204 36.5047L356.801 119.576C356.483 124.688 356.165 128.841 356.483 128.841C356.483 128.841 352.669 128.841 347.584 128.841H341.227C336.142 128.841 332.328 124.688 332.328 119.895L333.599 80.2767C333.599 75.1646 332.328 75.1646 330.739 79.6377L315.8 120.534C314.211 125.327 308.49 129.161 303.723 129.161H258.273C253.187 129.161 250.009 125.327 251.28 120.215L269.397 36.5047C270.35 31.7121 275.436 27.5586 280.203 27.5586H353.623Z" fill="white"/>
<path d="M439.433 28.1974C444.518 27.8779 449.604 31.3924 451.193 36.185L479.162 120.214C480.751 125.007 482.023 128.841 482.023 128.841C482.023 128.841 478.209 128.841 473.123 128.841H436.255C431.169 128.841 426.402 125.646 425.131 121.492C423.859 117.339 419.092 114.144 414.006 114.144H403.836C398.75 114.144 393.983 117.339 392.712 121.492C391.44 125.646 386.355 128.841 381.587 128.841H373.642C368.556 128.841 364.742 124.687 364.742 119.895L366.014 42.8946C366.014 37.7825 370.145 33.629 375.231 32.99L439.433 28.1974ZM411.146 80.596C409.557 75.8034 407.332 75.8034 405.743 80.596L404.471 85.069C402.882 89.8616 404.789 93.6956 408.603 93.6956C412.417 93.6956 414.324 89.8616 412.735 85.069L411.146 80.596Z" fill="white"/>
<path d="M465.802 36.5048C464.848 31.7123 468.027 27.5587 472.794 27.5587H482.647C487.732 27.5587 492.182 31.7123 492.5 36.5048L492.818 40.9779C493.136 46.0899 497.268 48.007 501.399 45.4509L524.601 32.0318C529.051 29.4758 536.361 27.5587 541.446 27.5587H580.858C585.943 27.5587 589.757 31.7123 589.757 36.5048V119.895C589.757 125.007 585.625 128.841 580.858 128.841H579.586C574.501 128.841 570.369 124.688 570.369 119.895L569.098 67.8162C569.098 62.7041 567.509 62.7041 565.602 67.1772L544.625 120.534C542.718 125.327 537.314 128.841 532.229 128.841H495.043C489.957 128.841 485.19 125.007 484.236 119.895L465.802 36.5048ZM523.648 1.03993C528.415 0.0814192 534.136 1.67894 536.043 4.87397C537.95 8.06901 536.043 12.2226 531.911 14.7786L506.802 29.4758C502.671 32.0318 497.585 30.1148 495.678 25.6417L491.864 16.3761C489.957 11.9031 492.5 7.1105 497.267 6.15199L523.648 1.03993Z" fill="white"/>
</svg>
