<svg width="87" height="62" viewBox="0 0 87 62" fill="none" xmlns="http://www.w3.org/2000/svg">
<path d="M70.5122 6.0676C73.2206 6.42271 75.5679 9.08605 75.7485 11.7494L76.6513 38.3827C76.8318 41.2236 78.4569 43.3543 80.4431 43.3543C82.4292 43.3543 84.5959 45.6625 85.1376 48.3258L86.7627 56.3158C87.3043 58.9792 85.4987 61.2874 82.6098 61.2874L43.7893 61.2874C40.9004 61.2874 38.7336 59.6894 38.7336 57.5587C38.7336 55.428 36.5669 54.0076 33.678 54.0076C30.789 54.0076 28.2611 55.6056 27.7195 57.7363C27.1778 59.6894 24.4694 61.4649 21.761 61.4649H5.14944C2.26047 61.4649 0.09375 59.1567 0.09375 56.4934L0.09375 48.6809C0.09375 45.6625 1.53823 43.3543 3.52439 43.3543C5.51056 43.3543 7.85784 41.2236 8.9412 38.7378L24.4694 4.29205C25.5527 1.80627 28.8028 0.0307122 31.6918 0.385823L70.5122 6.0676ZM37.6503 26.3089C36.3864 23.8232 34.9419 24.0007 34.4002 26.664L31.6918 38.3827C30.9695 41.046 32.7752 43.3543 35.6641 43.3543H40.9004C43.7893 43.3543 45.0532 41.2236 43.7893 38.7378L37.6503 26.3089Z" fill="white"/>
</svg>
