<svg width="164" height="34" viewBox="0 0 164 34" fill="none" xmlns="http://www.w3.org/2000/svg">
<path d="M148.553 7.49186V3.8562H135.129V30.6177H148.553L152.221 26.982V30.6177H163.376V11.2774V10.7527V10.6777V3.8562H152.221L148.553 7.49186Z" fill="white"/>
<path d="M45.4671 19.7856H43.7777V3.8562H10.413L10.2617 4.08109L2.69879 19.7856H0.625V29.0435V30.4677V33.4662H12.6819V30.4677H34.4377V33.4662H45.4671V29.0435V19.7856ZM23.1565 14.3884H31.0219V19.7856H20.5851L23.1565 14.3884Z" fill="white"/>
<path d="M44.6875 14.5383H46.3351V30.6177H72.5028V21.7347H62.4441V20.7976H72.5028V15.4753H62.4441V14.5383H72.5028V3.8562H44.6875V14.5383Z" fill="white"/>
<path d="M124.572 3.8562H108.652L102.262 10.1905V30.6177H116.48V28.7811H124.535V30.6551H134.139V3.8562H125.177H124.572ZM116.518 19.9356V14.3884H124.572V19.8981H116.518V19.9356Z" fill="white"/>
<path d="M73.375 10.1905V30.6177H87.7067V14.8381H88.5765V30.6177H101.32V3.8562H79.7657L73.375 10.1905Z" fill="white"/>
<path d="M163.376 0.295654H135.129V2.99429H163.376V0.295654Z" fill="white"/>
</svg>
