<svg width="96" height="25" viewBox="0 0 96 25" fill="none" xmlns="http://www.w3.org/2000/svg">
<path d="M53.6338 21.324L50.1812 11.5187L46.7287 21.324H42.7948L48.4953 5.13946H51.8712L57.5716 21.324H53.6338ZM29.2513 5.13946H40.4703V8.70997H33.181V11.4445H39.5404V15.019H33.181V17.7535H40.4703V21.324H29.2513V5.13946ZM25.9725 17.7496V24.2461H22.0388V21.324H4.71105V24.2461H0.777344V17.7496H2.52791L6.96699 5.13946H24.2704V17.7496H25.9725ZM20.3408 17.7496V8.70997H9.64337L6.46161 17.7496H20.3408ZM91.851 21.324V12.5071L85.0185 21.324H81.4163V5.13946H85.3501V13.9564L92.1826 5.13946H95.7848V21.324H91.851ZM92.8902 2.85806H84.6183V0.416504H92.8902V2.85806ZM75.1579 21.324L74.3857 19.1325H63.644L62.8719 21.3202H58.938L64.6385 5.13946H73.3872L79.0877 21.324H75.1579ZM73.1286 15.5581L70.719 8.70997H67.3148L64.9052 15.5581H73.1286Z" fill="white"/>
</svg>
