<svg width="162" height="38" viewBox="0 0 162 38" fill="none" xmlns="http://www.w3.org/2000/svg">
<path d="M34.1529 10.2908C35.4615 10.4624 36.5956 11.7492 36.6828 13.036L37.119 25.9044C37.2063 27.277 37.9915 28.3065 38.9511 28.3065C39.9108 28.3065 40.9576 29.4218 41.2194 30.7086L42.0045 34.5691C42.2663 35.856 41.3938 36.9712 39.998 36.9712H21.2412C19.8453 36.9712 18.7985 36.1991 18.7985 35.1696C18.7985 34.1402 17.7516 33.4539 16.3557 33.4539C14.9599 33.4539 13.7385 34.226 13.4768 35.2554C13.215 36.1991 11.9064 37.057 10.5978 37.057H2.57165C1.1758 37.057 0.128906 35.9417 0.128906 34.6549V30.8802C0.128906 29.4218 0.826833 28.3065 1.78648 28.3065C2.74613 28.3065 3.88026 27.277 4.40371 26.076L11.9064 9.4329C12.4299 8.23186 14.0002 7.37397 15.3961 7.54554L34.1529 10.2908ZM18.275 20.0708C17.6643 18.8697 16.9664 18.9555 16.7047 20.2423L15.3961 25.9044C15.0471 27.1913 15.9195 28.3065 17.3154 28.3065H19.8453C21.2412 28.3065 21.8519 27.277 21.2412 26.076L18.275 20.0708Z" fill="#007BAD"/>
<path d="M68.871 7.20264C70.2668 7.20264 71.3137 8.3179 71.3137 9.60473L71.2265 15.8673C71.2265 17.24 70.0923 18.1836 68.7837 17.9263L60.2341 16.7252C58.9255 16.5537 57.7914 16.9826 57.7914 17.7547C57.7914 18.5268 58.9255 18.9557 60.2341 18.7842L61.281 18.6126C62.5896 18.441 63.811 19.2989 63.8982 20.6715L63.9855 22.0442C64.0727 23.4168 63.1131 24.7036 61.8044 25.0468L60.2341 25.4757C58.9255 25.8189 57.8786 26.4194 57.8786 26.7626C57.8786 27.1057 58.9255 27.2773 60.3213 27.0199L66.2537 25.8189C67.5623 25.5615 68.522 26.4194 68.2603 27.7062L67.5623 31.9099C67.3879 33.1967 66.0792 34.312 64.6834 34.312H45.7521C44.3563 34.312 43.0477 33.1967 42.7859 31.9099L38.5111 9.60473C38.2494 8.3179 39.1218 7.20264 40.5177 7.20264H68.871Z" fill="#007BAD"/>
<path d="M97.0591 7.20239C98.455 7.20239 99.5019 8.31765 99.4146 9.60449L97.9316 31.9097C97.8443 33.2823 97.7571 34.3976 97.8443 34.3976C97.8443 34.3976 96.7974 34.3976 95.4016 34.3976H93.6567C92.2609 34.3976 91.214 33.2823 91.214 31.9955L91.563 21.3576C91.563 19.985 91.214 19.985 90.7778 21.186L86.6775 32.167C86.2413 33.4539 84.6709 34.4833 83.3623 34.4833H70.8869C69.491 34.4833 68.6186 33.4539 68.9676 32.0812L73.9403 9.60449C74.202 8.31765 75.5979 7.20239 76.9065 7.20239H97.0591Z" fill="#007BAD"/>
<path d="M120.615 7.37382C122.011 7.28803 123.407 8.23171 123.843 9.51855L131.52 32.0811C131.956 33.3679 132.305 34.3974 132.305 34.3974C132.305 34.3974 131.258 34.3974 129.862 34.3974H119.742C118.347 34.3974 117.038 33.5395 116.689 32.4242C116.34 31.309 115.031 30.4511 113.636 30.4511H110.844C109.448 30.4511 108.139 31.309 107.79 32.4242C107.442 33.5395 106.046 34.3974 104.737 34.3974H102.556C101.16 34.3974 100.113 33.2821 100.113 31.9953L100.462 11.3201C100.462 9.94749 101.596 8.83224 102.992 8.66066L120.615 7.37382ZM112.85 21.4432C112.414 20.1564 111.804 20.1564 111.367 21.4432L111.018 22.6443C110.582 23.9311 111.106 24.9606 112.153 24.9606C113.199 24.9606 113.723 23.9311 113.287 22.6443L112.85 21.4432Z" fill="#007BAD"/>
<path d="M127.847 9.60434C127.585 8.3175 128.458 7.20224 129.767 7.20224H132.471C133.867 7.20224 135.088 8.3175 135.175 9.60434L135.263 10.8054C135.35 12.178 136.484 12.6927 137.618 12.0064L143.987 8.40329C145.208 7.71698 147.215 7.20224 148.611 7.20224H159.428C160.824 7.20224 161.871 8.3175 161.871 9.60434V31.9953C161.871 33.3679 160.737 34.3974 159.428 34.3974H159.079C157.684 34.3974 156.549 33.2821 156.549 31.9953L156.201 18.0117C156.201 16.639 155.764 16.639 155.241 17.8401L149.483 32.1669C148.96 33.4537 147.476 34.3974 146.081 34.3974H135.873C134.478 34.3974 133.169 33.3679 132.907 31.9953L127.847 9.60434ZM143.725 0.0817458C145.034 -0.175622 146.604 0.253324 147.127 1.11122C147.651 1.96911 147.127 3.08437 145.993 3.77068L139.101 7.71698C137.967 8.40329 136.571 7.88856 136.048 6.68751L135.001 4.19962C134.478 2.99858 135.175 1.71174 136.484 1.45437L143.725 0.0817458Z" fill="#007BAD"/>
</svg>
