<svg width="133" height="34" viewBox="0 0 133 34" fill="none" xmlns="http://www.w3.org/2000/svg">
<path d="M73.6911 29.0717L68.8776 15.6992L64.0642 29.0717H58.5798L66.5272 6.99906H71.2338L79.1812 29.0717H73.6911ZM39.6976 6.99906H55.3389V11.8686H45.1763V15.5979H54.0425V20.4728H45.1763V24.2022H55.3389V29.0717H39.6976V6.99906ZM35.1265 24.1969V33.0569H29.6422V29.0717H5.48428V33.0569H0V24.1969H2.4406L8.62945 6.99906H32.7535V24.1969H35.1265ZM27.2749 24.1969V11.8686H12.3608L7.92487 24.1969H27.2749ZM126.973 29.0717V17.0471L117.447 29.0717H112.425V6.99906H117.909V19.0237L127.435 6.99906H132.457V29.0717H126.973ZM128.421 3.88768H116.889V0.557861H128.421V3.88768ZM103.7 29.0717L102.623 26.0829H87.6472L86.5706 29.0664H81.0862L89.0336 6.99906H101.231L109.178 29.0717H103.7ZM100.87 21.2081L97.5109 11.8686H92.7649L89.4054 21.2081H100.87Z" fill="white"/>
</svg>
