<svg width="220" height="55" viewBox="0 0 220 55" fill="none" xmlns="http://www.w3.org/2000/svg">
<path d="M122.284 48.1435L114.359 25.6348L106.433 48.1435H97.4031L110.489 10.9908H118.238L131.324 48.1435H122.284ZM66.3129 10.9908H92.0669V19.1871H75.3338V25.4644H89.9322V33.6698H75.3338V39.9472H92.0669V48.1435H66.3129V10.9908ZM58.7863 39.9381V54.8513H49.7562V48.1435H9.9793V54.8513H0.949219V39.9381H4.96776L15.1579 10.9908H54.8791V39.9381H58.7863ZM45.8584 39.9381V19.1871H21.3018L13.9978 39.9381H45.8584ZM210.014 48.1435V27.9036L194.33 48.1435H186.061V10.9908H195.091V31.2306L210.776 10.9908H219.045V48.1435H210.014ZM212.4 5.75368H193.411V0.148926H212.4V5.75368ZM171.695 48.1435L169.922 43.1127H145.264L143.491 48.1346H134.461L147.547 10.9908H167.63L180.716 48.1435H171.695ZM167.036 34.9074L161.505 19.1871H153.69L148.159 34.9074H167.036Z" fill="#1D1D1D"/>
</svg>
