<svg width="71" height="17" viewBox="0 0 71 17" fill="none" xmlns="http://www.w3.org/2000/svg">
<path d="M2.77709 6.95815H7.24522V8.21425H2.77709V6.95815ZM6.70689 6.95815H8.01682C8.01682 6.95815 8.01682 7.35293 8.01682 7.53237C7.9271 11.5878 7.81944 13.0951 7.44261 13.5975C7.1555 13.9205 6.86839 14.0461 6.36595 14.1C5.8994 14.1538 5.0919 14.1359 4.21263 14.1C4.17675 13.7052 4.03319 13.1848 3.8358 12.8439C4.6433 12.9157 5.43285 12.9157 5.7379 12.9157C5.98912 12.9157 6.16856 12.8977 6.29417 12.7362C6.56334 12.4132 6.65306 11.0674 6.70689 7.19143V6.95815ZM11.7672 1.1442L12.5747 0.300822C13.6872 0.87504 15.1048 1.73636 15.8046 2.36442L14.9613 3.27957C14.2794 2.65152 12.8977 1.73636 11.7672 1.1442ZM14.3332 6.00711L15.679 6.3301C14.1538 11.0136 11.4801 14.4768 7.80149 16.6481C7.6041 16.3789 7.10166 15.8226 6.81456 15.5535C10.4572 13.6155 12.9874 10.3317 14.3332 6.00711ZM2.88476 3.27957H16.7736V4.60745H2.88476V3.27957ZM2.02343 3.27957H3.42309V8.33986C3.42309 10.888 3.13598 14.5127 1.50305 16.8634C1.26977 16.5942 0.695554 16.1277 0.372557 15.9662C1.86193 13.759 2.02343 10.6726 2.02343 8.32192V3.27957ZM9.47031 0.264933H10.87C10.8341 8.51931 12.5926 15.2484 14.9254 15.2484C15.4278 15.2484 15.6611 14.3153 15.7688 11.9287C16.0738 12.2338 16.5762 12.5388 16.9351 12.6644C16.6839 15.7329 16.1815 16.6122 14.8177 16.6122C11.1571 16.6122 9.54209 8.86025 9.47031 0.264933ZM25.8893 0.785318H27.3787C27.2352 3.60257 26.966 12.5568 19.5371 16.5942C19.3038 16.2533 18.8552 15.8406 18.4425 15.5355C25.7637 11.8031 25.7637 3.17191 25.8893 0.785318ZM27.3249 1.1442C27.3787 2.54386 27.8991 12.0723 35.2921 15.4637C34.8974 15.7688 34.4846 16.2174 34.2693 16.5942C26.6609 12.9515 26.1585 2.92069 26.0329 1.26981L27.3249 1.1442ZM45.0718 4.37418H52.2674V5.66616H45.0718V4.37418ZM51.6035 4.37418H52.9314C52.9314 4.37418 52.9134 4.87662 52.9134 5.05606C52.6802 12.467 52.4648 14.9972 51.8368 15.7867C51.4779 16.2712 51.119 16.4148 50.5268 16.4866C49.9706 16.5404 49.0016 16.5225 48.0505 16.4686C48.0146 16.0739 47.8711 15.5176 47.6199 15.1407C48.6427 15.2305 49.5758 15.2305 49.9706 15.2305C50.2756 15.2484 50.473 15.1946 50.6704 14.9792C51.1549 14.405 51.4061 11.8211 51.6035 4.67923V4.37418ZM47.6737 0.552042H49.0016C48.9657 6.79665 48.876 13.2745 45.2333 16.7198C45 16.4148 44.5334 15.9662 44.1925 15.7509C47.6378 12.5927 47.6558 6.41982 47.6737 0.552042ZM37.5711 1.70048H44.5155V2.92069H37.5711V1.70048ZM36.9251 5.98916H44.8385V7.20937H36.9251V5.98916ZM42.2186 9.07558L43.3132 8.77053C44.0131 10.3676 44.8206 12.5209 45.1436 13.759L43.9592 14.1718C43.6542 12.8977 42.8826 10.7085 42.2186 9.07558ZM37.5711 14.5306L37.4634 13.4002L38.1453 12.9157L44.031 11.6775C44.0669 12.0364 44.1566 12.5568 44.2104 12.8439C38.6836 14.082 38.0017 14.2794 37.5711 14.5306ZM37.5711 14.5306C37.4993 14.2435 37.284 13.6155 37.1404 13.2745C37.4275 13.1848 37.6608 12.7183 37.9658 12.0184C38.235 11.3724 39.1502 8.78847 39.5808 6.45571L40.8908 6.86843C40.3345 9.27297 39.4193 11.9108 38.5042 13.759V13.777C38.5042 13.777 37.5711 14.2435 37.5711 14.5306ZM56.4126 14.3333H69.7093V15.6252H56.4126V14.3333ZM55.1206 1.41337H71.0013V2.68741H55.1206V1.41337ZM55.6768 4.48184H56.9868V16.7378H55.6768V4.48184ZM69.171 4.48184H70.4988V16.684H69.171V4.48184ZM62.3162 1.80814H63.68V5.27139H62.3162V1.80814ZM62.406 5.16372H63.5903V12.2697H62.406V5.16372ZM59.8399 9.25502V11.6057H66.1743V9.25502H59.8399ZM59.8399 5.82766V8.16042H66.1743V5.82766H59.8399ZM58.6915 4.67923H67.3586V12.7542H58.6915V4.67923Z" fill="#8BE200"/>
</svg>
