<svg width="466" height="96" viewBox="0 0 466 96" fill="none" xmlns="http://www.w3.org/2000/svg">
<path d="M423.246 21.5109V11.1104H384.844V87.6671H423.246L433.74 77.2665V87.6671H465.652V32.3404V30.8393V30.6248V11.1104H433.74L423.246 21.5109Z" fill="white"/>
<path d="M128.351 56.6798H119.48V11.1104H28.0708L27.6381 11.7537L6.00282 56.6798H0.0703125V83.1637V87.2382V95.816H34.5614V87.2382H87.0271V95.816H128.351V83.1637V56.6798ZM64.5264 41.2398H92.0032V56.6798H57.1704L64.5264 41.2398Z" fill="white"/>
<path d="M121.969 41.6687H130.839V87.6671H205.697V62.2554H176.922V59.5748H205.697V44.3493H176.922V41.6687H205.697V11.1104H121.969V41.6687Z" fill="white"/>
<path d="M354.652 11.1104H309.11L290.828 29.2309V87.6671H331.503V82.4132H354.544V87.7743H382.021V11.1104H356.383H354.652ZM331.611 57.1087V41.2398H354.652V57.0015H331.611V57.1087Z" fill="white"/>
<path d="M208.188 29.2309V87.6671H249.186V42.5265H251.674V87.6671H288.13V11.1104H226.469L208.188 29.2309Z" fill="white"/>
<path d="M465.652 0.924072H384.844V8.64408H465.652V0.924072Z" fill="white"/>
</svg>
