<svg width="125" height="60" viewBox="0 0 125 60" fill="none" xmlns="http://www.w3.org/2000/svg">
<path d="M102.808 19.0089C100.409 19.0089 98.4888 19.0089 96.5004 19.0089C96.5004 17.1577 96.5004 15.5808 96.5004 13.8667C98.6944 13.7982 100.683 13.6611 103.082 13.5925C103.082 9.68446 103.082 5.84497 103.082 1.7998C105.071 1.7998 106.716 1.7998 108.705 1.7998C108.705 5.57072 108.705 9.41021 108.705 13.5925C113.847 13.5925 118.715 13.5925 123.994 13.5925C123.994 15.3066 124.062 16.6092 123.994 17.9119C123.308 28.9504 122.623 39.9889 121.868 51.0274C121.8 52.0559 121.594 53.0843 121.32 54.0442C120.566 57.1295 118.715 58.775 115.561 58.9807C113.161 59.1178 110.761 58.9807 108.225 58.9807C107.539 57.198 106.922 55.5525 106.168 53.6328C109.39 53.4957 112.407 53.3586 115.698 53.1529C117.412 41.703 117.618 30.5959 118.303 19.2146C115.012 19.2146 111.927 19.2146 108.773 19.2146C107.333 33.2698 106.168 47.3251 96.569 59.3235C95.0606 57.9522 93.758 56.7181 92.3867 55.4154C100.066 44.7197 102.191 32.3785 102.808 19.0089Z" fill="white"/>
<path d="M77.78 25.5219C74.2833 25.5219 71.1295 25.5219 67.7014 25.5219C67.7014 23.6707 67.7014 22.0253 67.7014 20.1741C76.8887 20.1741 86.076 20.1741 95.469 20.1741C95.469 21.8196 95.469 23.4651 95.469 25.3848C91.7667 25.3848 87.9958 25.3848 84.2249 25.3848C81.4138 32.9952 78.6713 40.3999 75.7231 48.3531C79.9054 46.9819 83.6078 45.6792 87.7901 44.308C86.4874 41.9083 85.3218 39.7143 83.9506 37.1775C85.459 36.2862 86.9673 35.4634 88.9556 34.3664C91.3553 39.0972 93.6179 43.6223 96.0861 48.4217C94.3721 49.5187 93.0008 50.4786 91.4239 51.5755C90.9439 50.9585 90.464 50.3414 89.9155 49.7244C83.1964 51.7812 76.3402 53.9067 69.4154 56.0321C68.7298 54.1123 68.1813 52.604 67.6328 51.027C71.9522 43.0738 75.5175 34.7778 77.78 25.5219Z" fill="white"/>
<path d="M22.3789 25.5897C22.3789 23.4642 22.3789 21.8873 22.3789 20.0361C34.4458 20.0361 46.4442 20.0361 58.6483 20.0361C58.6483 21.7502 58.6483 23.3957 58.6483 25.384C55.9058 25.384 53.1633 25.384 49.9409 25.384C49.9409 26.7552 49.9409 27.8522 49.9409 28.9492C49.9409 36.4911 49.9409 44.0329 49.9409 51.5747C49.9409 56.7854 47.9526 58.7738 42.7419 58.9109C39.9308 58.9794 37.0512 58.9109 34.0345 58.9109C33.2803 56.854 32.5947 55.0714 31.909 53.0831C35.8857 52.0547 39.8623 53.563 43.6332 51.9861C43.6332 43.1416 43.6332 34.5027 43.6332 25.5211C36.5713 25.5897 29.6465 25.5897 22.3789 25.5897Z" fill="white"/>
<path d="M10.1778 58.6373C10.1778 50.0671 10.1778 41.7025 10.1778 32.6523C7.70953 34.5035 5.72123 36.0804 3.52724 37.7259C2.56737 35.669 1.81318 33.955 0.921875 31.9667C7.77809 27.0302 12.646 20.4482 17.1025 13.1121C18.8852 13.8662 20.5992 14.6204 22.7932 15.5117C20.5992 18.9398 18.4738 22.0937 16.2112 25.6589C16.2112 36.3546 16.2112 47.3931 16.2112 58.7059C14.1544 58.6373 12.3032 58.6373 10.1778 58.6373Z" fill="white"/>
<path d="M24.168 8.72354C24.168 6.8038 24.168 5.15831 24.168 3.30713C35.1379 3.30713 45.9707 3.30713 57.0092 3.30713C57.0092 5.08975 57.0092 6.8038 57.0092 8.72354C46.1079 8.72354 35.3436 8.72354 24.168 8.72354Z" fill="white"/>
<path d="M3.73386 18.8712C2.70543 16.8143 1.88268 15.1688 1.26562 13.8662C6.33923 9.47819 11.07 5.36446 16.2807 0.839355C17.5149 1.38785 19.2289 2.14204 21.4229 3.17047C16.555 9.61531 10.8643 14.6889 3.73386 18.8712Z" fill="white"/>
<path d="M93.141 3.10229C93.141 4.95347 93.141 6.39328 93.141 8.10733C85.3935 8.10733 77.7831 8.10733 69.8984 8.10733C69.8984 6.46184 69.8984 4.88491 69.8984 3.10229C77.646 3.10229 85.1878 3.10229 93.141 3.10229Z" fill="white"/>
</svg>
