<svg width="327" height="381" viewBox="0 0 327 381" fill="none" xmlns="http://www.w3.org/2000/svg">
<path d="M160.919 295.53C166.919 297.691 166.528 306.989 166.946 313.472C168.23 334.315 168.453 355.242 167.616 376.113C166.919 393.799 164.63 413.22 151.878 425.219C147.749 429.115 142.475 432.015 136.866 432.271C131.257 432.555 125.342 429.797 122.691 424.764C120.403 420.414 120.793 415.068 122.412 410.433C124.03 405.799 126.765 401.676 129.22 397.439C144.847 370.398 148.614 338.182 152.046 306.989C152.018 306.932 152.604 292.516 160.919 295.53Z" fill="#F7EEFF" stroke="#A02273" stroke-width="1.37533" stroke-miterlimit="10"/>
<path d="M175.525 295.53C169.525 297.691 169.916 306.989 169.497 313.472C168.214 334.315 167.991 355.243 168.828 376.113C169.525 393.8 171.813 413.22 184.566 425.22C188.695 429.115 193.969 432.015 199.578 432.271C205.187 432.556 211.102 429.798 213.753 424.765C216.041 420.414 215.651 415.069 214.032 410.434C212.414 405.799 209.679 401.676 207.224 397.439C191.597 370.398 187.83 338.182 184.398 306.989C184.426 306.933 183.84 292.516 175.525 295.53Z" fill="#F7EEFF" stroke="#A02273" stroke-width="1.37533" stroke-miterlimit="10"/>
<path d="M159.488 256.233L145.006 337.868C145.006 337.868 141.406 357.516 135.239 364.938C129.073 372.359 120.646 375.487 113.167 369.402C106.749 364.199 106.526 352.91 112.749 347.422C114.814 345.602 117.381 344.408 119.083 342.219C120.562 340.314 121.204 337.868 121.79 335.508C129.045 306.619 136.272 277.701 143.527 248.812C146.122 239.741 162.502 243.495 159.488 256.233Z" fill="#F7EEFF" stroke="#A02273" stroke-width="1.37533" stroke-miterlimit="10"/>
<path d="M182.35 260.157L205.371 339.745C205.371 339.745 211.007 358.881 217.928 365.592C224.848 372.302 233.554 374.463 240.335 367.611C246.167 361.725 245.19 350.465 238.437 345.716C236.205 344.152 233.498 343.214 231.601 341.252C229.926 339.517 229.033 337.157 228.196 334.883C217.956 306.932 207.687 279.009 197.446 251.058C193.902 242.3 178.025 247.817 182.35 260.157Z" fill="#F7EEFF" stroke="#A02273" stroke-width="1.37533" stroke-miterlimit="10"/>
<path d="M147.673 292.913L157.299 243.295C160.48 230.358 181.325 229.391 184.45 246.764L193.044 293.226C192.821 322.002 147.477 321.689 147.673 292.913Z" fill="#FFFAF4"/>
<path d="M193.013 293.226L184.418 246.764C181.293 229.391 160.449 230.358 157.268 243.295L147.641 292.913" stroke="#A02273" stroke-width="1.37533" stroke-miterlimit="10" stroke-linecap="round"/>
<path d="M148.581 293.084C142.526 293.653 123.635 296.383 109.516 306.136C126.258 366.019 212.091 360.303 229.224 313.671C222.834 308.098 211.03 300.932 192.279 294.591C177.267 290.753 165.463 290.554 148.581 293.084Z" fill="#FFFAF4"/>
<path d="M147.744 292.06C141.689 292.629 123.635 296.382 109.516 306.135C126.258 366.018 212.091 360.303 229.224 313.671C222.834 308.097 211.84 299.823 193.088 293.454" stroke="#A02273" stroke-width="1.37533" stroke-miterlimit="10" stroke-linecap="round"/>
<path d="M187.988 273.294L182.389 246.315C179.354 230.874 160.791 232.04 158.129 243.602L152.48 275.347C167.609 277.959 178.557 276.235 187.988 273.294Z" fill="#F5B8BC"/>
<path d="M129.106 -10.1682C111.471 -17.618 90.1804 -6.1021 81.4185 11.4135C72.6566 28.9291 78.4607 50.2833 84.46 68.9931C80.1349 58.842 72.0148 50.8804 61.8857 47.2408C52.1751 43.7434 41.6832 42.9188 31.8051 45.7054C15.4813 50.3117 1.94782 65.8653 1.47345 83.3809C1.11069 97.1147 8.67269 110.394 19.5832 118.241C30.4936 126.089 41.2088 128.819 54.4353 127.568C82.0882 124.952 105.89 106.242 124.837 85.2576C137.254 71.5238 148.723 55.6574 151.765 37.0897C154.834 18.5221 145.933 -3.05962 129.106 -10.1682Z" fill="#F7EEFF" stroke="#A02273" stroke-width="1.37533" stroke-miterlimit="10" stroke-linejoin="round"/>
<path d="M108.216 124.014L108.105 123.928C96.441 114.147 94.7667 96.6028 104.366 84.7172L105.426 83.4092C115.025 71.5237 132.242 69.8176 143.906 79.599L144.017 79.6843C147.589 82.6699 163.578 97.0293 147.84 118.469C132.102 139.908 111.76 126.999 108.216 124.014Z" fill="#E2AEEC" stroke="#A02273" stroke-width="1.37533" stroke-miterlimit="10"/>
<path d="M98.4688 110.792C100.087 115.227 102.85 119.293 106.7 122.535L106.812 122.62C113.928 128.592 124.447 127.539 130.307 120.289L144.901 102.204C150.761 94.9536 149.728 84.2339 142.613 78.2627L142.501 78.1774C140.827 76.7841 139.041 75.6183 137.2 74.6799C128.605 78.1205 120.485 82.7837 113.621 89.0393C107.035 95.0105 101.678 102.489 98.4688 110.792Z" fill="#CF84BC"/>
<path d="M219.686 17.3567C234.419 -8.63238 283.139 -19.6081 298.794 13.6033C309.202 34.6732 302.868 58.2169 285.595 70.1593C292.125 65.1264 300.831 64.1312 309.034 64.245C326.474 64.5293 343.691 70.8986 350.974 87.0493C356.89 100.186 354.741 116.678 344.528 126.715C334.315 136.753 319.415 140.762 305.267 139.767C291.12 138.771 277.642 133.198 265.225 126.204C250.408 117.787 197.586 54.8616 219.686 17.3567Z" fill="#F7EEFF" stroke="#A02273" stroke-width="1.37533" stroke-miterlimit="10" stroke-linejoin="round"/>
<path d="M246.387 128.649L246.499 128.564C258.163 118.782 259.837 101.238 250.238 89.3527L249.178 88.0447C239.579 76.1592 222.362 74.4531 210.698 84.2345L210.586 84.3198C207.098 87.2486 189.575 103.314 206.094 123.929C222.613 144.544 242.76 131.692 246.387 128.649Z" fill="#E2AEEC" stroke="#A02273" stroke-width="1.37533" stroke-miterlimit="10"/>
<path d="M220.057 80.2244C216.736 81.248 213.555 82.9541 210.709 85.3426L210.597 85.4279C203.482 91.3991 202.449 102.119 208.309 109.37L222.903 127.454C228.763 134.705 239.282 135.757 246.398 129.785L246.51 129.7C249.3 127.369 251.504 124.582 253.151 121.54C248.1 104.28 235.683 89.0675 220.057 80.2244Z" fill="#CF84BC"/>
<path d="M170.66 261.835C231.04 261.835 279.988 229.169 279.988 188.873C279.988 148.577 231.04 115.91 170.66 115.91C110.28 115.91 61.332 148.577 61.332 188.873C61.332 229.169 110.28 261.835 170.66 261.835Z" fill="#F7EEFF" stroke="#A02273" stroke-width="1.37533" stroke-miterlimit="10"/>
<path d="M98.9732 134.961C106.005 99.9301 136.42 73.5999 172.863 73.5999C210.003 73.5999 240.865 100.954 247.144 136.952C246.809 162.628 98.6384 160.638 98.9732 134.961Z" fill="#F7EEFF"/>
<path d="M98.9727 134.961C106.004 99.9301 136.42 73.5999 172.863 73.5999C210.003 73.5999 240.865 100.954 247.143 136.952" stroke="#A02273" stroke-width="1.37533" stroke-miterlimit="10" stroke-linecap="round"/>
<path d="M233.226 132.43C228.427 132.203 223.655 131.72 218.856 131.464C218.8 131.464 218.744 131.464 218.688 131.464C218.465 131.464 218.214 131.606 218.13 131.89C217.516 133.539 216.903 135.189 216.317 136.838C216.149 137.321 216.54 137.947 217.07 137.833C222.483 136.496 227.869 135.16 233.282 133.824C233.98 133.682 234.091 132.459 233.226 132.43Z" fill="#61271B"/>
<path d="M228.319 121.199C223.659 122.421 221.734 122.677 217.102 123.872C217.046 123.9 216.99 123.9 216.934 123.928C216.711 124.014 216.543 124.213 216.516 124.526C216.404 126.288 216.934 127.767 216.822 129.53C216.795 130.042 217.353 130.525 217.827 130.241C220.673 128.307 225.947 124.668 228.738 122.564C229.407 122.165 229.156 121 228.319 121.199Z" fill="#61271B"/>
<path d="M220.313 123.332C218.694 119.237 216.406 115.569 213.504 112.413C210.435 109.115 206.835 106.641 203.096 105.304C201.087 104.593 199.022 104.195 196.957 104.138C194.92 104.082 192.883 104.338 190.874 104.906C190.595 104.992 190.428 105.276 190.483 105.56C190.539 105.845 190.818 106.044 191.097 106.015C193.023 105.731 194.92 105.731 196.762 106.044C198.603 106.356 200.361 106.925 202.036 107.807C205.133 109.399 207.979 111.93 210.267 115.143C212.388 118.1 213.979 121.569 214.871 125.152C215.792 128.791 216.602 134.251 216.016 137.492C215.988 137.634 216.016 137.805 216.127 137.947C216.239 138.089 216.35 138.146 216.518 138.174L221.987 136.468C222.015 136.468 222.015 136.468 222.043 136.468C222.182 136.468 222.294 136.412 222.406 136.326C222.517 136.212 222.601 136.07 222.601 135.928C222.796 131.578 222.015 127.711 220.313 123.332Z" fill="#61271B"/>
<path d="M217.393 130.184C217.393 143.691 206.259 155.235 192.53 155.235C178.802 155.235 167.668 143.691 167.668 130.184C167.668 116.678 178.802 104.536 192.53 104.536C206.259 104.536 217.393 116.706 217.393 130.184Z" fill="#F5ECEF" stroke="#61271B" stroke-width="1.37533" stroke-miterlimit="10"/>
<path d="M190.922 142.695C197.487 142.695 202.809 137.272 202.809 130.582C202.809 123.892 197.487 118.469 190.922 118.469C184.357 118.469 179.035 123.892 179.035 130.582C179.035 137.272 184.357 142.695 190.922 142.695Z" fill="#221E1F"/>
<path d="M115.884 119.35C120.544 120.573 122.469 120.829 127.101 122.023C127.157 122.051 127.213 122.051 127.269 122.08C127.492 122.165 127.659 122.364 127.687 122.677C127.799 124.44 127.269 125.918 127.38 127.681C127.408 128.193 126.85 128.677 126.376 128.392C123.53 126.459 118.256 122.819 115.465 120.715C114.796 120.317 115.047 119.123 115.884 119.35Z" fill="#61271B"/>
<path d="M111.237 130.468C116.037 130.411 120.836 130.099 125.636 130.013C125.691 130.013 125.747 130.013 125.803 130.042C126.026 130.07 126.25 130.212 126.361 130.497C126.919 132.174 126.919 133.852 127.449 135.53C127.617 136.013 127.756 136.639 127.226 136.496C121.869 134.961 116.511 133.454 111.154 131.918C110.456 131.691 110.372 130.468 111.237 130.468Z" fill="#61271B"/>
<path d="M154.728 105.503C152.774 104.764 150.765 104.337 148.728 104.252C146.663 104.138 144.571 104.365 142.534 104.934C138.711 105.958 134.916 108.119 131.595 111.161C128.442 114.062 125.875 117.531 123.949 121.483C121.885 125.72 120.768 129.501 120.629 133.852C120.629 134.022 120.685 134.165 120.796 134.278C120.908 134.392 121.047 134.449 121.187 134.449C121.187 134.449 121.187 134.449 121.215 134.449L127.465 136.838C127.633 136.838 127.772 136.752 127.856 136.638C127.968 136.525 127.996 136.354 127.996 136.212C127.661 132.914 128.023 127.312 129.223 123.758C130.395 120.26 132.265 116.933 134.609 114.147C137.148 111.133 140.162 108.83 143.399 107.493C145.129 106.754 146.942 106.327 148.812 106.157C150.682 106.015 152.579 106.157 154.476 106.583C154.756 106.64 155.062 106.47 155.146 106.185C155.146 105.901 155.007 105.588 154.728 105.503Z" fill="#61271B"/>
<path d="M174.291 129.757C174.291 143.264 163.548 155.405 150.321 155.405C137.067 155.405 126.352 143.235 126.352 129.757C126.352 116.279 137.095 105.332 150.321 105.332C163.576 105.332 174.291 116.279 174.291 129.757Z" fill="#F5ECEF" stroke="#61271B" stroke-width="1.37533" stroke-miterlimit="10"/>
<path d="M154.02 142.354C160.585 142.354 165.907 136.93 165.907 130.241C165.907 123.551 160.585 118.128 154.02 118.128C147.455 118.128 142.133 123.551 142.133 130.241C142.133 136.93 147.455 142.354 154.02 142.354Z" fill="#221E1F"/>
<path d="M245.356 188.105C254.386 188.105 261.707 180.645 261.707 171.442C261.707 162.24 254.386 154.78 245.356 154.78C236.325 154.78 229.004 162.24 229.004 171.442C229.004 180.645 236.325 188.105 245.356 188.105Z" fill="#E2AEEC" stroke="#E889D6" stroke-width="1.37533" stroke-miterlimit="10"/>
<path d="M93.8166 191.147C102.847 191.147 110.168 183.687 110.168 174.485C110.168 165.282 102.847 157.822 93.8166 157.822C84.7858 157.822 77.4648 165.282 77.4648 174.485C77.4648 183.687 84.7858 191.147 93.8166 191.147Z" fill="#E2AEEC" stroke="#E889D6" stroke-width="1.37533" stroke-miterlimit="10"/>
<path d="M169.818 159.699C174.38 159.699 178.078 155.93 178.078 151.282C178.078 146.634 174.38 142.865 169.818 142.865C165.257 142.865 161.559 146.634 161.559 151.282C161.559 155.93 165.257 159.699 169.818 159.699Z" fill="#BD0D68" stroke="#68204E" stroke-width="1.37533" stroke-miterlimit="10"/>
<path d="M168.13 206.416C162.521 206.416 156.828 205.421 151.443 203.459C144.997 201.099 138.998 197.374 134.031 192.654C129.482 188.332 129.148 180.939 133.249 176.162C137.351 171.385 144.355 171.015 148.904 175.337C154.512 180.683 162.381 183.555 169.915 183.015C177.477 182.474 184.872 178.494 189.727 172.352C193.662 167.404 200.638 166.75 205.353 170.873C210.041 174.996 210.683 182.389 206.749 187.308C202.479 192.711 196.982 197.289 190.927 200.53C184.872 203.772 178.119 205.762 171.478 206.274C170.362 206.388 169.246 206.416 168.13 206.416Z" fill="#FFB312" stroke="#9B3A2A" stroke-width="1.37533" stroke-miterlimit="10"/>
<path d="M198.663 179.318C191.854 187.877 181.669 193.365 171.122 194.133C160.546 194.901 149.747 190.977 141.906 183.47" stroke="#9B3A2A" stroke-width="1.37533" stroke-miterlimit="10" stroke-linecap="round"/>
<path d="M169.595 159.784C174.896 159.784 179.194 155.404 179.194 150.002C179.194 144.6 174.896 140.221 169.595 140.221C164.294 140.221 159.996 144.6 159.996 150.002C159.996 155.404 164.294 159.784 169.595 159.784Z" fill="#FFB312" stroke="#9B3A2A" stroke-width="1.37533" stroke-miterlimit="10"/>
<path d="M159.805 90.9728C157.461 90.0629 146.243 84.6035 137.816 96.6028" stroke="#A02273" stroke-width="2.75066" stroke-miterlimit="10" stroke-linecap="round"/>
<path d="M184.281 90.6321C186.653 89.779 198.038 84.6608 206.102 96.9445" stroke="#A02273" stroke-width="2.75066" stroke-miterlimit="10" stroke-linecap="round"/>
</svg>
