<svg width="12" height="12" viewBox="0 0 12 12" fill="none" xmlns="http://www.w3.org/2000/svg">
<path d="M6.09325 11.6784C3.06619 11.7217 0.644531 9.25676 0.644531 6.2297C0.644531 3.24587 3.10943 0.824219 6.1365 0.824219C9.12032 0.824219 11.542 3.28912 11.542 6.31618C11.4987 9.25676 9.07708 11.7217 6.09325 11.6784ZM7.5203 8.9973C7.69327 8.95406 7.77976 8.91081 7.86625 8.78108C7.90949 8.69459 7.95274 8.56486 7.99598 8.47838C8.16896 7.31079 8.38517 6.18645 8.55815 5.01887C8.60139 4.80265 8.60139 4.62968 8.64464 4.41346C8.64464 4.15399 8.51491 4.02426 8.25544 4.06751C8.16896 4.06751 8.08247 4.11075 7.99598 4.15399C7.65003 4.28372 7.39057 4.37021 7.1311 4.49994C5.7473 5.06211 4.40674 5.66753 3.02294 6.2297C2.93645 6.27294 2.84997 6.31618 2.76348 6.40267C2.67699 6.48916 2.67699 6.61889 2.80672 6.66214C2.84997 6.66214 2.84997 6.70538 2.89321 6.70538C3.23916 6.79187 3.54187 6.9216 3.88782 7.00809C4.14728 7.09457 4.3635 7.05133 4.57972 6.9216C4.62296 6.87835 4.70945 6.83511 4.75269 6.79187C5.4446 6.35943 6.09325 5.88375 6.78515 5.45131C6.87164 5.40806 6.91489 5.36482 7.00137 5.32158C7.04462 5.32158 7.08786 5.32158 7.1311 5.36482C7.1311 5.40806 7.1311 5.45131 7.1311 5.49455C7.04462 5.62428 6.91489 5.75401 6.78515 5.8405C6.35272 6.27294 5.87703 6.70538 5.4446 7.13782C5.18513 7.35404 5.22838 7.57026 5.48784 7.74323C6.05001 8.13243 6.61218 8.52162 7.17435 8.86757C7.26084 8.91081 7.39057 8.95406 7.5203 8.9973Z" fill="#4F9FDF"/>
</svg>
