<svg width="12" height="12" viewBox="0 0 12 12" fill="none" xmlns="http://www.w3.org/2000/svg">
<path d="M6.19454 0.855645C6.88644 0.855645 7.62159 0.855645 8.31349 0.855645C8.78917 0.855645 9.26485 0.898889 9.74053 1.02862C10.7351 1.24484 11.2973 1.80701 11.4703 2.75837C11.5568 3.14757 11.6 3.49352 11.6 3.88271C11.6433 5.0503 11.6433 6.17464 11.6433 7.34222C11.6433 7.90439 11.6 8.46656 11.6 9.02873C11.5568 9.33143 11.5135 9.63414 11.427 9.93685C11.2108 10.8017 10.6487 11.2774 9.78378 11.4936C9.39458 11.5801 8.96214 11.6234 8.57295 11.6234C7.40537 11.6666 6.19454 11.6666 5.02696 11.6666C4.50803 11.6666 3.98911 11.6234 3.47018 11.6234C3.16747 11.5801 2.86477 11.5369 2.56206 11.4504C1.74043 11.2342 1.2215 10.672 1.04853 9.80712C0.918794 9.46117 0.832306 9.02873 0.832306 8.63953C0.789062 7.51519 0.789062 6.4341 0.789062 5.30976C0.789062 4.70435 0.789062 4.09893 0.87555 3.45027C0.918794 3.10432 0.962038 2.75837 1.04853 2.45567C1.26474 1.72052 1.78367 1.24484 2.56206 1.02862C2.95125 0.942133 3.38369 0.898889 3.81613 0.855645C4.59452 0.855645 5.41615 0.812401 6.19454 0.855645ZM6.88644 5.26652C6.88644 5.00705 6.88644 4.74759 6.88644 4.44488C6.88644 4.27191 6.79995 4.18542 6.67022 4.18542C6.23778 4.18542 5.84859 4.18542 5.41615 4.18542C5.24318 4.18542 5.15669 4.35839 5.24318 4.48813L5.28642 4.53137C5.45939 4.74759 5.50264 4.96381 5.50264 5.22327C5.50264 5.56922 5.50264 5.91517 5.50264 6.26112C5.50264 6.30437 5.50264 6.39085 5.50264 6.4341C5.45939 6.56383 5.37291 6.60707 5.28642 6.52059C5.19993 6.4341 5.11344 6.34761 5.02696 6.26112C4.72425 5.87193 4.50803 5.43949 4.29181 5.00705C4.20532 4.83408 4.11884 4.6611 4.07559 4.44488C3.98911 4.31515 3.94586 4.22866 3.77289 4.22866C3.47018 4.22866 3.16747 4.22866 2.86477 4.22866C2.69179 4.22866 2.6053 4.3584 2.64855 4.53137C2.69179 4.70435 2.73503 4.87732 2.77828 5.09354C3.08099 5.91517 3.51342 6.60707 3.98911 7.29897C4.29181 7.68817 4.68101 8.03412 5.11344 8.29358C5.50264 8.5098 5.93508 8.63953 6.41076 8.59629C6.79995 8.59629 6.8432 8.5098 6.8432 8.12061C6.8432 7.90439 6.8432 7.64493 6.8432 7.42871C6.8432 7.34222 6.92969 7.25573 7.01617 7.29897C7.1459 7.34222 7.23239 7.34222 7.31888 7.42871C7.49186 7.55844 7.66483 7.68817 7.83781 7.86114C8.01078 8.03412 8.18376 8.2071 8.35673 8.42331C8.44322 8.5098 8.57295 8.59629 8.70268 8.59629C8.96214 8.59629 9.26485 8.59629 9.52431 8.59629C9.74053 8.59629 9.87027 8.42331 9.78378 8.2071C9.69729 8.03412 9.6108 7.90439 9.52431 7.77466C9.26485 7.42871 8.96214 7.126 8.65944 6.82329C8.48646 6.65032 8.48646 6.56383 8.61619 6.34761C8.83241 6.00166 9.09188 5.65571 9.26485 5.30976C9.39458 5.0503 9.52431 4.79083 9.65405 4.53137C9.74053 4.31515 9.65405 4.22866 9.43783 4.22866C9.17836 4.22866 8.9189 4.22866 8.65944 4.22866C8.48646 4.22866 8.35673 4.31515 8.27024 4.48813C8.14051 4.74759 8.01078 5.00705 7.88105 5.26652C7.70807 5.61247 7.49186 5.95842 7.18915 6.21788C7.10266 6.26112 7.05942 6.34761 6.92969 6.30437C6.8432 6.26112 6.8432 6.13139 6.8432 6.0449C6.88644 5.78544 6.88644 5.52598 6.88644 5.26652Z" fill="#3177F6"/>
</svg>
