<svg width="14" height="15" viewBox="0 0 14 15" fill="none" xmlns="http://www.w3.org/2000/svg">
<path d="M13.7309 7.18893C13.7309 8.87544 13.7309 10.5619 13.7309 12.2485C13.7309 13.3728 12.9554 14.2161 11.9214 14.2161C8.81931 14.2161 5.66553 14.2161 2.56345 14.2161C1.52943 14.2161 0.753906 13.3728 0.753906 12.2485C0.753906 8.87544 0.753906 5.4462 0.753906 2.07318C0.753906 0.948845 1.52943 0.105591 2.56345 0.105591C5.66553 0.105591 8.81931 0.105591 11.9214 0.105591C12.9554 0.105591 13.7309 0.948845 13.7309 2.07318C13.7826 3.75969 13.7309 5.50242 13.7309 7.18893ZM6.49275 6.85163C6.54445 6.79541 6.59615 6.79541 6.64785 6.73919C7.21657 6.34567 7.37167 5.50242 6.95806 4.94025C6.69955 4.54673 6.33764 4.4343 5.92403 4.37808C5.09681 4.37808 4.21789 4.37808 3.39067 4.37808C3.28727 4.37808 3.28727 4.4343 3.28727 4.49051C3.28727 6.17702 3.28727 7.91975 3.28727 9.60626C3.28727 9.71869 3.33897 9.77491 3.44237 9.77491C4.26959 9.77491 5.09681 9.77491 5.92403 9.77491C6.13084 9.77491 6.33764 9.71869 6.54445 9.60626C6.95806 9.43761 7.31997 9.15652 7.42337 8.65057C7.47507 8.4257 7.47507 8.14462 7.47507 7.91975C7.47507 7.52623 7.26827 7.24515 6.95806 7.02028C6.75125 7.02028 6.59615 6.96406 6.49275 6.85163ZM11.1976 8.65057C11.1459 8.65057 11.0942 8.65057 11.0425 8.65057C10.8874 8.65057 10.6806 8.65057 10.5254 8.65057C10.422 8.65057 10.3703 8.70679 10.2669 8.763C10.0601 9.10031 9.74993 9.21274 9.33632 9.10031C8.97441 8.98787 8.7676 8.763 8.6642 8.36948C8.6125 8.14462 8.6125 8.14462 8.87101 8.14462C9.64653 8.14462 10.3703 8.14462 11.1459 8.14462C11.2493 8.14462 11.301 8.14462 11.301 8.03218C11.301 7.35758 11.1459 6.73919 10.6288 6.28946C9.80163 5.50242 8.6125 5.67107 7.99208 6.62676C7.37167 7.52623 7.57847 8.87544 8.4057 9.55004C8.97441 9.99978 9.85333 10.056 10.4737 9.66248C10.8874 9.43761 11.0942 9.10031 11.1976 8.65057ZM9.49142 4.7716C9.28462 4.7716 9.02611 4.7716 8.81931 4.7716C8.4574 4.7716 8.5091 4.7716 8.5091 5.1089C8.5091 5.22133 8.5608 5.27755 8.6642 5.27755C9.18121 5.27755 9.69823 5.27755 10.2152 5.27755C10.6288 5.27755 10.5254 5.33377 10.5771 4.88403C10.5771 4.7716 10.5254 4.71538 10.422 4.71538C10.0601 4.7716 9.80163 4.7716 9.49142 4.7716Z" fill="#1E57F6"/>
<path d="M4.99822 8.93131C4.79141 8.93131 4.58461 8.93131 4.42951 8.93131C4.3261 8.93131 4.3261 8.87509 4.3261 8.81888C4.3261 8.42536 4.3261 7.97562 4.3261 7.5821C4.2744 7.52589 4.3261 7.41345 4.3778 7.41345C4.79141 7.41345 5.25673 7.41345 5.67034 7.46967C5.77374 7.46967 5.92884 7.5821 6.03224 7.63832C6.39415 7.9194 6.29075 8.59401 5.92884 8.76266C5.82544 8.81888 5.67034 8.87509 5.51523 8.87509C5.36013 8.93131 5.15332 8.93131 4.99822 8.93131Z" fill="#1E57F6"/>
<path d="M4.94659 5.3335C5.15339 5.3335 5.3085 5.3335 5.5153 5.3335C5.92891 5.3335 6.18742 5.72701 6.08402 6.12053C6.03231 6.3454 5.82551 6.51405 5.5153 6.57027C5.15339 6.57027 4.79148 6.57027 4.42957 6.57027C4.32617 6.57027 4.32617 6.51405 4.32617 6.45784C4.32617 6.12053 4.32617 5.78323 4.32617 5.44593C4.32617 5.3335 4.37787 5.3335 4.42957 5.3335C4.58468 5.3335 4.79148 5.3335 4.94659 5.3335Z" fill="#1E57F6"/>
<path d="M10.3195 7.46969C9.80252 7.46969 9.23381 7.46969 8.7168 7.46969C8.7168 7.1886 8.8719 6.96374 9.07871 6.79509C9.33721 6.57022 9.59572 6.57022 9.90593 6.73887C10.1127 6.8513 10.2678 7.13239 10.3195 7.46969Z" fill="#1E57F6"/>
</svg>
