<svg width="12" height="12" viewBox="0 0 12 12" fill="none" xmlns="http://www.w3.org/2000/svg">
<path d="M11.3972 6.27294C11.3972 7.57026 11.3972 8.86757 11.3972 10.1649C11.3972 11.0298 10.7485 11.6784 9.88364 11.6784C7.28901 11.6784 4.65113 11.6784 2.0565 11.6784C1.19163 11.6784 0.542969 11.0298 0.542969 10.1649C0.542969 7.57026 0.542969 4.93238 0.542969 2.33775C0.542969 1.47288 1.19163 0.824219 2.0565 0.824219C4.65113 0.824219 7.28901 0.824219 9.88364 0.824219C10.7485 0.824219 11.3972 1.47288 11.3972 2.33775C11.4404 3.63507 11.3972 4.97563 11.3972 6.27294ZM5.34303 6.01348C5.38628 5.97023 5.42952 5.97023 5.47276 5.92699C5.94845 5.62428 6.07818 4.97563 5.73223 4.54319C5.51601 4.24048 5.2133 4.15399 4.86735 4.11075C4.17545 4.11075 3.4403 4.11075 2.7484 4.11075C2.66192 4.11075 2.66192 4.15399 2.66192 4.19724C2.66192 5.49455 2.66192 6.83511 2.66192 8.13242C2.66192 8.21891 2.70516 8.26216 2.79165 8.26216C3.48355 8.26216 4.17545 8.26216 4.86735 8.26216C5.04033 8.26216 5.2133 8.21891 5.38628 8.13242C5.73223 8.00269 6.03493 7.78647 6.12142 7.39728C6.16467 7.2243 6.16467 7.00809 6.16467 6.83511C6.16467 6.5324 5.99169 6.31618 5.73223 6.14321C5.55925 6.14321 5.42952 6.09997 5.34303 6.01348ZM9.27822 7.39728C9.23498 7.39728 9.19173 7.39728 9.14849 7.39728C9.01876 7.39728 8.84578 7.39728 8.71605 7.39728C8.62956 7.39728 8.58632 7.44052 8.49983 7.48377C8.32686 7.74323 8.06739 7.82972 7.72144 7.74323C7.41874 7.65674 7.24576 7.48377 7.15927 7.18106C7.11603 7.00809 7.11603 7.00809 7.33225 7.00809C7.98091 7.00809 8.58632 7.00809 9.23498 7.00809C9.32147 7.00809 9.36471 7.00809 9.36471 6.9216C9.36471 6.40267 9.23498 5.92699 8.80254 5.58104C8.11064 4.97563 7.11603 5.10536 6.5971 5.8405C6.07818 6.5324 6.25115 7.57025 6.94306 8.08918C7.41874 8.43513 8.15388 8.47838 8.67281 8.17567C9.01876 8.00269 9.19173 7.74323 9.27822 7.39728ZM7.85118 4.41346C7.6782 4.41346 7.46198 4.41346 7.28901 4.41346C6.9863 4.41346 7.02954 4.41346 7.02954 4.67292C7.02954 4.75941 7.07279 4.80265 7.15927 4.80265C7.59171 4.80265 8.02415 4.80265 8.45659 4.80265C8.80254 4.80265 8.71605 4.84589 8.7593 4.49994C8.7593 4.41346 8.71605 4.37021 8.62956 4.37021C8.32686 4.41346 8.11064 4.41346 7.85118 4.41346Z" fill="#1E57F6"/>
</svg>
