<svg width="12" height="12" viewBox="0 0 12 12" fill="none" xmlns="http://www.w3.org/2000/svg">
<path d="M9.58566 6.22997C9.54241 6.22997 9.49917 6.22997 9.45593 6.22997C8.98024 6.22997 8.50456 6.22997 8.02888 6.22997C7.94239 6.22997 7.89915 6.18673 7.89915 6.10024C7.89915 5.71105 7.89915 5.32185 7.89915 4.93266C7.89915 4.62995 7.98564 4.54346 8.28834 4.54346C8.54781 4.54346 8.85051 4.54346 9.10998 4.54346C9.23971 4.54346 9.23971 4.54346 9.23971 4.41373C9.23971 3.93805 9.23971 3.46237 9.23971 2.98668C9.23971 2.9002 9.19646 2.85695 9.10998 2.85695C8.72078 2.85695 8.28834 2.85695 7.89915 2.85695C6.73157 2.85695 5.86669 3.76507 5.86669 4.88941C5.86669 5.27861 5.86669 5.71105 5.86669 6.10024C5.86669 6.22997 5.86669 6.22997 5.73696 6.22997C5.34776 6.22997 5.00181 6.22997 4.61262 6.22997C4.52613 6.22997 4.48289 6.27321 4.48289 6.3597C4.48289 6.83538 4.48289 7.35431 4.48289 7.82999C4.48289 7.91648 4.52613 7.95972 4.61262 7.95972C5.00181 7.95972 5.34776 7.95972 5.73696 7.95972C5.82345 7.95972 5.86669 7.95972 5.86669 8.08946C5.86669 9.25704 5.86669 10.4246 5.86669 11.5922C5.86669 11.6787 5.86669 11.7219 5.73696 11.7219C4.3964 11.7219 3.09909 11.7219 1.75853 11.7219C0.980138 11.7219 0.417969 11.1165 0.417969 10.3381C0.417969 8.39216 0.417969 6.40295 0.417969 4.45697C0.417969 3.72183 0.417969 2.98668 0.417969 2.25154C0.417969 1.60288 0.850407 1.04071 1.49906 0.910981C1.58555 0.78125 1.71528 0.78125 1.84501 0.78125C4.52613 0.78125 7.20725 0.78125 9.88836 0.78125C10.71 0.78125 11.3154 1.38666 11.3154 2.2083C11.3154 4.88941 11.3154 7.57053 11.3154 10.2516C11.3154 11.0733 10.71 11.6787 9.88836 11.6787C9.28295 11.6787 8.67754 11.6787 8.02888 11.6787C7.89915 11.6787 7.89915 11.6354 7.89915 11.549C7.89915 10.3814 7.89915 9.25704 7.89915 8.08946C7.89915 7.95972 7.89915 7.95972 8.02888 7.95972C8.28834 7.95972 8.54781 7.95972 8.80727 7.95972C8.85051 7.95972 8.89376 7.95972 8.937 7.87324C9.15322 7.35431 9.36944 6.83538 9.54241 6.31646C9.58566 6.27322 9.58566 6.27322 9.58566 6.22997Z" fill="#4A598F"/>
</svg>
