<svg width="12" height="12" viewBox="0 0 12 12" fill="none" xmlns="http://www.w3.org/2000/svg">
<path d="M0.316406 6.25146C0.316406 4.9109 0.316406 3.61358 0.316406 2.27302C0.316406 1.45139 0.965064 0.802734 1.7867 0.802734C4.42457 0.802734 7.06244 0.802734 9.74356 0.802734C10.5652 0.802734 11.2138 1.45139 11.2138 2.27302C11.2138 4.9109 11.2138 7.54877 11.2138 10.2299C11.2138 11.0515 10.5652 11.7002 9.74356 11.7002C7.10569 11.7002 4.46781 11.7002 1.7867 11.7002C0.965064 11.7002 0.316406 11.0515 0.316406 10.2299C0.316406 8.88933 0.316406 7.54877 0.316406 6.25146ZM8.10029 3.39736C7.84083 3.39736 7.53812 3.44061 7.32191 3.57034C6.80298 3.8298 6.54352 4.219 6.37054 4.73792C6.3273 4.86765 6.41378 4.95414 6.54352 4.9109C6.63 4.9109 6.75974 4.86765 6.84622 4.86765C7.19217 4.86765 7.32191 5.04063 7.23542 5.34334C7.23542 5.38658 7.23542 5.38658 7.19217 5.42982C7.0192 5.73253 6.88947 6.03524 6.67325 6.2947C6.54352 6.51092 6.41378 6.68389 6.28405 6.85687C6.19757 6.94336 6.15432 6.94336 6.11108 6.81363C6.06783 6.72714 6.06783 6.68389 6.02459 6.59741C5.85161 5.9055 5.67864 5.25685 5.50566 4.56495C5.41918 4.26224 5.33269 4.00278 5.2462 3.70007C5.15971 3.44061 4.85701 3.35412 4.59754 3.39736C4.29484 3.5271 4.03537 3.65683 3.81916 3.8298C3.38672 4.17575 2.95428 4.5217 2.52184 4.86765C2.26238 5.08387 2.34887 5.12712 2.52184 5.38658C2.60833 5.51631 2.69482 5.51631 2.82455 5.42982C2.95428 5.34334 3.08401 5.25685 3.25699 5.17036C3.51645 5.04063 3.64618 5.08387 3.77591 5.34334C3.8624 5.51631 3.94889 5.73253 3.99213 5.90551C4.20835 6.51092 4.38133 7.15958 4.59754 7.76499C4.72728 8.11094 4.90025 8.45689 5.11647 8.7596C5.33269 9.0623 5.46242 9.14879 5.9381 9.01906C6.06783 8.97582 6.24081 8.88933 6.37054 8.84608C6.84622 8.58662 7.19217 8.19743 7.53812 7.76499C8.01381 7.20282 8.403 6.64065 8.74895 5.99199C9.05166 5.47307 9.26788 4.9109 9.18139 4.26224C9.13815 3.91629 9.00841 3.61358 8.70571 3.44061C8.44624 3.39736 8.27327 3.39736 8.10029 3.39736Z" fill="#52BAFF"/>
</svg>
