<svg width="95.007812" height="23.829590" viewBox="0 0 95.0078 23.8296" fill="none" xmlns="http://www.w3.org/2000/svg" xmlns:xlink="http://www.w3.org/1999/xlink">
	<desc>
			Created with Pixso.
	</desc>
	<defs/>
	<path id="Vector" d="M52.85 20.9L49.4 11.1L45.95 20.9L42.01 20.9L47.71 4.72L51.09 4.72L56.79 20.9L52.85 20.9ZM28.47 4.72L39.69 4.72L39.69 8.29L32.4 8.29L32.4 11.02L38.76 11.02L38.76 14.6L32.4 14.6L32.4 17.33L39.69 17.33L39.69 20.9L28.47 20.9L28.47 4.72ZM25.19 17.33L25.19 23.82L21.26 23.82L21.26 20.9L3.93 20.9L3.93 23.82L0 23.82L0 17.33L1.75 17.33L6.19 4.72L23.49 4.72L23.49 17.33L25.19 17.33ZM19.56 17.33L19.56 8.29L8.86 8.29L5.68 17.33L19.56 17.33ZM91.07 20.9L91.07 12.09L84.24 20.9L80.64 20.9L80.64 4.72L84.57 4.72L84.57 13.53L91.4 4.72L95 4.72L95 20.9L91.07 20.9ZM92.11 2.44L83.83 2.44L83.83 0L92.11 0L92.11 2.44ZM74.37 20.9L73.6 18.71L62.86 18.71L62.09 20.9L58.16 20.9L63.85 4.72L72.6 4.72L78.3 20.9L74.37 20.9ZM72.35 15.14L69.94 8.29L66.53 8.29L64.12 15.14L72.35 15.14Z" fill="#FFFFFF" fill-opacity="0.200000" fill-rule="nonzero"/>
</svg>
