<svg width="72" height="17" viewBox="0 0 72 17" fill="none" xmlns="http://www.w3.org/2000/svg">
<path d="M3.05053 6.95815H7.51866V8.21425H3.05053V6.95815ZM6.98033 6.95815H8.29026C8.29026 6.95815 8.29026 7.35293 8.29026 7.53237C8.20054 11.5878 8.09287 13.0951 7.71604 13.5975C7.42894 13.9205 7.14183 14.0461 6.63939 14.1C6.17283 14.1538 5.36534 14.1359 4.48607 14.1C4.45018 13.7052 4.30663 13.1848 4.10924 12.8439C4.91673 12.9157 5.70628 12.9157 6.01134 12.9157C6.26256 12.9157 6.442 12.8977 6.56761 12.7362C6.83677 12.4132 6.92649 11.0674 6.98033 7.19143V6.95815ZM12.0406 1.1442L12.8481 0.300822C13.9607 0.87504 15.3783 1.73636 16.0781 2.36442L15.2347 3.27957C14.5528 2.65152 13.1711 1.73636 12.0406 1.1442ZM14.6066 6.00711L15.9525 6.3301C14.4272 11.0136 11.7535 14.4768 8.07493 16.6481C7.87754 16.3789 7.3751 15.8226 7.08799 15.5535C10.7307 13.6155 13.2608 10.3317 14.6066 6.00711ZM3.15819 3.27957H17.0471V4.60745H3.15819V3.27957ZM2.29687 3.27957H3.69652V8.33986C3.69652 10.888 3.40941 14.5127 1.77648 16.8634C1.54321 16.5942 0.968991 16.1277 0.645994 15.9662C2.13537 13.759 2.29687 10.6726 2.29687 8.32192V3.27957ZM9.74375 0.264933H11.1434C11.1075 8.51931 12.8661 15.2484 15.1988 15.2484C15.7013 15.2484 15.9345 14.3153 16.0422 11.9287C16.3472 12.2338 16.8497 12.5388 17.2086 12.6644C16.9574 15.7329 16.4549 16.6122 15.0911 16.6122C11.4305 16.6122 9.81553 8.86025 9.74375 0.264933ZM26.1628 0.785318H27.6521C27.5086 3.60257 27.2394 12.5568 19.8105 16.5942C19.5772 16.2533 19.1286 15.8406 18.7159 15.5355C26.0372 11.8031 26.0372 3.17191 26.1628 0.785318ZM27.5983 1.1442C27.6521 2.54386 28.1725 12.0723 35.5656 15.4637C35.1708 15.7688 34.7581 16.2174 34.5428 16.5942C26.9344 12.9515 26.4319 2.92069 26.3063 1.26981L27.5983 1.1442ZM45.3452 4.37418H52.5409V5.66616H45.3452V4.37418ZM51.8769 4.37418H53.2048C53.2048 4.37418 53.1869 4.87662 53.1869 5.05606C52.9536 12.467 52.7383 14.9972 52.1102 15.7867C51.7513 16.2712 51.3924 16.4148 50.8003 16.4866C50.244 16.5404 49.275 16.5225 48.324 16.4686C48.2881 16.0739 48.1445 15.5176 47.8933 15.1407C48.9161 15.2305 49.8492 15.2305 50.244 15.2305C50.5491 15.2484 50.7464 15.1946 50.9438 14.9792C51.4283 14.405 51.6795 11.8211 51.8769 4.67923V4.37418ZM47.9471 0.552042H49.275C49.2391 6.79665 49.1494 13.2745 45.5067 16.7198C45.2734 16.4148 44.8069 15.9662 44.4659 15.7509C47.9112 12.5927 47.9292 6.41982 47.9471 0.552042ZM37.8445 1.70048H44.7889V2.92069H37.8445V1.70048ZM37.1985 5.98916H45.1119V7.20937H37.1985V5.98916ZM42.4921 9.07558L43.5867 8.77053C44.2865 10.3676 45.094 12.5209 45.417 13.759L44.2327 14.1718C43.9276 12.8977 43.156 10.7085 42.4921 9.07558ZM37.8445 14.5306L37.7368 13.4002L38.4187 12.9157L44.3044 11.6775C44.3403 12.0364 44.4301 12.5568 44.4839 12.8439C38.957 14.082 38.2752 14.2794 37.8445 14.5306ZM37.8445 14.5306C37.7727 14.2435 37.5574 13.6155 37.4138 13.2745C37.7009 13.1848 37.9342 12.7183 38.2393 12.0184C38.5084 11.3724 39.4236 8.78847 39.8543 6.45571L41.1642 6.86843C40.6079 9.27297 39.6928 11.9108 38.7776 13.759V13.777C38.7776 13.777 37.8445 14.2435 37.8445 14.5306ZM56.686 14.3333H69.9827V15.6252H56.686V14.3333ZM55.394 1.41337H71.2747V2.68741H55.394V1.41337ZM55.9503 4.48184H57.2602V16.7378H55.9503V4.48184ZM69.4444 4.48184H70.7723V16.684H69.4444V4.48184ZM62.5897 1.80814H63.9534V5.27139H62.5897V1.80814ZM62.6794 5.16372H63.8637V12.2697H62.6794V5.16372ZM60.1134 9.25502V11.6057H66.4477V9.25502H60.1134ZM60.1134 5.82766V8.16042H66.4477V5.82766H60.1134ZM58.9649 4.67923H67.632V12.7542H58.9649V4.67923Z" fill="#1D1D1D"/>
</svg>
