<svg width="14" height="14" viewBox="0 0 14 14" fill="none" xmlns="http://www.w3.org/2000/svg">
<path id="Vk" d="M6.75926 0.565551C7.58795 0.565551 8.46842 0.565551 9.29711 0.565551C9.86683 0.565551 10.4366 0.617458 11.0063 0.773181C12.1975 1.03272 12.8708 1.70752 13.078 2.84949C13.1816 3.31666 13.2334 3.73192 13.2334 4.19909C13.2852 5.6006 13.2852 6.9502 13.2852 8.35171C13.2852 9.02651 13.2334 9.70131 13.2334 10.3761C13.1816 10.7395 13.1298 11.1028 13.0262 11.4662C12.7672 12.5043 12.0939 13.0753 11.0581 13.3348C10.5919 13.4387 10.074 13.4906 9.60787 13.4906C8.20946 13.5425 6.75926 13.5425 5.36085 13.5425C4.73934 13.5425 4.11783 13.4906 3.49631 13.4906C3.13376 13.4387 2.77121 13.3868 2.40866 13.2829C1.4246 13.0234 0.803085 12.3486 0.595913 11.3104C0.440535 10.8952 0.336949 10.3761 0.336949 9.90894C0.285156 8.55934 0.285156 7.26165 0.285156 5.91205C0.285156 5.18534 0.285156 4.45863 0.388742 3.68001C0.440535 3.26475 0.492328 2.84949 0.595913 2.48614C0.854877 1.6037 1.47639 1.03272 2.40866 0.773181C2.8748 0.669366 3.39273 0.617458 3.91065 0.565551C4.84293 0.565551 5.82699 0.513643 6.75926 0.565551ZM7.58795 5.86014C7.58795 5.54869 7.58795 5.23725 7.58795 4.87389C7.58795 4.66626 7.48436 4.56245 7.32898 4.56245C6.81105 4.56245 6.34492 4.56245 5.82699 4.56245C5.61982 4.56245 5.51623 4.77008 5.61982 4.9258L5.67161 4.97771C5.87878 5.23725 5.93057 5.49678 5.93057 5.80823C5.93057 6.22349 5.93057 6.63875 5.93057 7.05402C5.93057 7.10592 5.93057 7.20974 5.93057 7.26165C5.87878 7.41737 5.7752 7.46928 5.67161 7.36546C5.56802 7.26165 5.46444 7.15783 5.36085 7.05402C4.9983 6.58685 4.73934 6.06777 4.48038 5.54869C4.37679 5.34106 4.2732 5.13343 4.22141 4.87389C4.11783 4.71817 4.06603 4.61435 3.85886 4.61435C3.49631 4.61435 3.13376 4.61435 2.77121 4.61435C2.56404 4.61435 2.46046 4.77008 2.51225 4.97771C2.56404 5.18534 2.61583 5.39297 2.66763 5.65251C3.03018 6.63875 3.5481 7.46928 4.11783 8.2998C4.48038 8.76697 4.94651 9.18223 5.46444 9.49368C5.93057 9.75322 6.4485 9.90894 7.01822 9.85703C7.48436 9.85703 7.53615 9.75322 7.53615 9.28605C7.53615 9.02651 7.53615 8.71506 7.53615 8.45552C7.53615 8.35171 7.63974 8.24789 7.74332 8.2998C7.8987 8.35171 8.00229 8.35171 8.10587 8.45552C8.31305 8.61125 8.52022 8.76697 8.72739 8.9746C8.93456 9.18223 9.14173 9.38986 9.3489 9.6494C9.45249 9.75322 9.60787 9.85703 9.76324 9.85703C10.074 9.85703 10.4366 9.85703 10.7473 9.85703C11.0063 9.85703 11.1617 9.6494 11.0581 9.38986C10.9545 9.18223 10.8509 9.02651 10.7473 8.87079C10.4366 8.45552 10.074 8.09217 9.71145 7.72882C9.50428 7.52118 9.50428 7.41737 9.65966 7.15783C9.91862 6.74257 10.2294 6.32731 10.4366 5.91205C10.5919 5.6006 10.7473 5.28915 10.9027 4.97771C11.0063 4.71817 10.9027 4.61435 10.6437 4.61435C10.333 4.61435 10.0222 4.61435 9.71145 4.61435C9.50428 4.61435 9.3489 4.71817 9.24532 4.9258C9.08994 5.23725 8.93456 5.54869 8.77918 5.86014C8.57201 6.2754 8.31305 6.69066 7.9505 7.00211C7.84691 7.05402 7.79512 7.15783 7.63974 7.10592C7.53615 7.05402 7.53615 6.89829 7.53615 6.79448C7.58795 6.48303 7.58795 6.17158 7.58795 5.86014Z" fill="#3177F6"/>
</svg>
