<svg width="14" height="14" viewBox="0 0 14 14" fill="none" xmlns="http://www.w3.org/2000/svg">
<path id="Tg" d="M6.64062 13.5357C3.02951 13.5875 0.140625 10.6355 0.140625 7.01015C0.140625 3.43663 3.0811 0.536377 6.69221 0.536377C10.2517 0.536377 13.1406 3.48842 13.1406 7.11373C13.089 10.6355 10.2001 13.5875 6.64062 13.5357ZM8.34301 10.3247C8.54935 10.2729 8.65253 10.2211 8.7557 10.0658C8.80729 9.96218 8.85888 9.80682 8.91047 9.70323C9.11682 8.3049 9.37475 6.95836 9.5811 5.56002C9.63269 5.30107 9.63269 5.09391 9.68428 4.83496C9.68428 4.52422 9.52951 4.36885 9.21999 4.42064C9.11682 4.42064 9.01364 4.47243 8.91047 4.52422C8.49777 4.67959 8.18824 4.78317 7.87872 4.93854C6.22793 5.61181 4.62872 6.33687 2.97793 7.01015C2.87475 7.06194 2.77158 7.11373 2.6684 7.21731C2.56523 7.32089 2.56523 7.47626 2.71999 7.52805C2.77158 7.52805 2.77158 7.57984 2.82316 7.57984C3.23586 7.68342 3.59697 7.83879 4.00967 7.94237C4.3192 8.04595 4.57713 7.99416 4.83507 7.83879C4.88666 7.787 4.98983 7.73521 5.04142 7.68342C5.86682 7.16552 6.64062 6.59582 7.46602 6.07792C7.5692 6.02613 7.62078 5.97434 7.72396 5.92255C7.77555 5.92255 7.82713 5.92255 7.87872 5.97434C7.87872 6.02613 7.87872 6.07792 7.87872 6.12971C7.77555 6.28508 7.62078 6.44045 7.46602 6.54403C6.95015 7.06194 6.38269 7.57984 5.86682 8.09774C5.55729 8.35669 5.60888 8.61564 5.9184 8.8228C6.58904 9.28891 7.25967 9.75502 7.93031 10.1693C8.03348 10.2211 8.18824 10.2729 8.34301 10.3247Z" fill="#4F9FDF"/>
</svg>
