<svg width="14" height="14" viewBox="0 0 14 14" fill="none" xmlns="http://www.w3.org/2000/svg">
<g id="Be">
<path id="Vector" d="M13.0161 7.06227C13.0161 8.61606 13.0161 10.1698 13.0161 11.7236C13.0161 12.7595 12.2406 13.5364 11.2065 13.5364C8.10446 13.5364 4.95068 13.5364 1.84861 13.5364C0.814582 13.5364 0.0390625 12.7595 0.0390625 11.7236C0.0390625 8.61606 0.0390625 5.4567 0.0390625 2.34913C0.0390625 1.31327 0.814582 0.536377 1.84861 0.536377C4.95068 0.536377 8.10446 0.536377 11.2065 0.536377C12.2406 0.536377 13.0161 1.31327 13.0161 2.34913C13.0678 3.90291 13.0161 5.50849 13.0161 7.06227ZM5.7779 6.75152C5.82961 6.69972 5.88131 6.69972 5.93301 6.64793C6.50172 6.28538 6.65683 5.50849 6.24322 4.99056C5.98471 4.62801 5.6228 4.52442 5.20919 4.47263C4.38197 4.47263 3.50305 4.47263 2.67583 4.47263C2.57243 4.47263 2.57243 4.52443 2.57243 4.57622C2.57243 6.13 2.57243 7.73558 2.57243 9.28936C2.57243 9.39295 2.62413 9.44474 2.72753 9.44474C3.55475 9.44474 4.38197 9.44474 5.20919 9.44474C5.416 9.44474 5.6228 9.39295 5.82961 9.28936C6.24322 9.13399 6.60512 8.87502 6.70853 8.40889C6.76023 8.20172 6.76023 7.94275 6.76023 7.73558C6.76023 7.37303 6.55342 7.11407 6.24322 6.9069C6.03641 6.9069 5.88131 6.8551 5.7779 6.75152ZM10.4827 8.40889C10.431 8.40889 10.3793 8.40889 10.3276 8.40889C10.1725 8.40889 9.96571 8.40889 9.8106 8.40889C9.7072 8.40889 9.6555 8.46068 9.5521 8.51247C9.34529 8.82323 9.03508 8.92682 8.62148 8.82323C8.25957 8.71964 8.05276 8.51247 7.94936 8.14992C7.89766 7.94275 7.89766 7.94275 8.15616 7.94275C8.93168 7.94275 9.6555 7.94275 10.431 7.94275C10.5344 7.94275 10.5861 7.94275 10.5861 7.83917C10.5861 7.21765 10.431 6.64793 9.91401 6.23359C9.08679 5.50849 7.89766 5.66387 7.27724 6.54435C6.65683 7.37303 6.86363 8.61606 7.69085 9.23757C8.25957 9.65191 9.13849 9.70371 9.7589 9.34116C10.1725 9.13399 10.3793 8.82323 10.4827 8.40889ZM8.77658 4.83518C8.56977 4.83518 8.31127 4.83518 8.10446 4.83518C7.74255 4.83518 7.79425 4.83518 7.79425 5.14594C7.79425 5.24952 7.84596 5.30132 7.94936 5.30132C8.46637 5.30132 8.98338 5.30132 9.5004 5.30132C9.91401 5.30132 9.8106 5.35311 9.86231 4.93877C9.86231 4.83518 9.8106 4.78339 9.7072 4.78339C9.34529 4.83518 9.08679 4.83518 8.77658 4.83518Z" fill="#1E57F6"/>
<path id="Vector_2" d="M4.28338 8.66745C4.07657 8.66745 3.86977 8.66745 3.71466 8.66745C3.61126 8.66745 3.61126 8.61566 3.61126 8.56386C3.61126 8.20131 3.61126 7.78697 3.61126 7.42442C3.55956 7.37263 3.61126 7.26904 3.66296 7.26904C4.07657 7.26904 4.54188 7.26904 4.95549 7.32084C5.05889 7.32084 5.214 7.42442 5.3174 7.47621C5.67931 7.73518 5.57591 8.35669 5.214 8.51207C5.1106 8.56386 4.95549 8.61566 4.80039 8.61566C4.64528 8.66745 4.43848 8.66745 4.28338 8.66745Z" fill="#1E57F6"/>
<path id="Vector_3" d="M4.22979 5.35278C4.4366 5.35278 4.5917 5.35278 4.7985 5.35278C5.21211 5.35278 5.47062 5.71533 5.36722 6.07788C5.31552 6.28505 5.10871 6.44043 4.7985 6.49223C4.4366 6.49223 4.07469 6.49223 3.71278 6.49223C3.60937 6.49223 3.60938 6.44043 3.60938 6.38864C3.60938 6.07788 3.60938 5.76713 3.60938 5.45637C3.60938 5.35278 3.66108 5.35278 3.71278 5.35278C3.86788 5.35278 4.07469 5.35278 4.22979 5.35278Z" fill="#1E57F6"/>
<path id="Vector_4" d="M9.60274 7.32068C9.08573 7.32068 8.51701 7.32068 8 7.32068C8 7.06172 8.1551 6.85455 8.36191 6.69917C8.62042 6.492 8.87892 6.492 9.18913 6.64738C9.39594 6.75096 9.55104 7.00993 9.60274 7.32068Z" fill="#1E57F6"/>
</g>
</svg>
