<svg width="14" height="14" viewBox="0 0 14 14" fill="none" xmlns="http://www.w3.org/2000/svg">
<path id="Fb" d="M11.8506 6.9892C11.799 6.9892 11.7474 6.9892 11.6958 6.9892C11.1283 6.9892 10.5609 6.9892 9.99343 6.9892C9.89025 6.9892 9.83867 6.93782 9.83867 6.83505C9.83867 6.3726 9.83867 5.91015 9.83867 5.4477C9.83867 5.08802 9.94184 4.98525 10.303 4.98525C10.6125 4.98525 10.9736 4.98525 11.2831 4.98525C11.4379 4.98525 11.4379 4.98525 11.4379 4.8311C11.4379 4.26588 11.4379 3.70066 11.4379 3.13545C11.4379 3.03268 11.3863 2.9813 11.2831 2.9813C10.8188 2.9813 10.303 2.9813 9.83867 2.9813C8.44581 2.9813 7.41406 4.06035 7.41406 5.39632C7.41406 5.85877 7.41406 6.3726 7.41406 6.83505C7.41406 6.9892 7.41406 6.9892 7.2593 6.9892C6.79501 6.9892 6.38232 6.9892 5.91803 6.9892C5.81486 6.9892 5.76327 7.04058 5.76327 7.14335C5.76327 7.70857 5.76327 8.32517 5.76327 8.89039C5.76327 8.99315 5.81486 9.04454 5.91803 9.04454C6.38232 9.04454 6.79501 9.04454 7.2593 9.04454C7.36248 9.04454 7.41406 9.04454 7.41406 9.19869C7.41406 10.586 7.41406 11.9734 7.41406 13.3607C7.41406 13.4635 7.41406 13.5149 7.2593 13.5149C5.66009 13.5149 4.11248 13.5149 2.51327 13.5149C1.5847 13.5149 0.914062 12.7955 0.914062 11.8706C0.914062 9.55837 0.914062 7.19473 0.914062 4.88248C0.914062 4.00896 0.914062 3.13545 0.914062 2.26193C0.914062 1.49118 1.42994 0.823193 2.20375 0.669043C2.30692 0.514893 2.46168 0.514893 2.61644 0.514893C5.81486 0.514893 9.01327 0.514893 12.2117 0.514893C13.1918 0.514893 13.9141 1.23426 13.9141 2.21054C13.9141 5.39632 13.9141 8.58209 13.9141 11.7679C13.9141 12.7441 13.1918 13.4635 12.2117 13.4635C11.4895 13.4635 10.7672 13.4635 9.99343 13.4635C9.83867 13.4635 9.83867 13.4121 9.83867 13.3094C9.83867 11.922 9.83867 10.586 9.83867 9.19869C9.83867 9.04454 9.83867 9.04454 9.99343 9.04454C10.303 9.04454 10.6125 9.04454 10.922 9.04454C10.9736 9.04454 11.0252 9.04454 11.0768 8.94177C11.3347 8.32517 11.5926 7.70857 11.799 7.09197C11.8506 7.04058 11.8506 7.04058 11.8506 6.9892Z" fill="#4A598F"/>
</svg>
