<svg width="14" height="14" viewBox="0 0 14 14" fill="none" xmlns="http://www.w3.org/2000/svg">
<path id="Vi" d="M0.8125 7.02563C0.8125 5.42643 0.8125 3.87881 0.8125 2.2796C0.8125 1.29944 1.58631 0.525635 2.56647 0.525635C5.71329 0.525635 8.86012 0.525635 12.0585 0.525635C13.0387 0.525635 13.8125 1.29944 13.8125 2.2796C13.8125 5.42643 13.8125 8.57325 13.8125 11.7717C13.8125 12.7518 13.0387 13.5256 12.0585 13.5256C8.91171 13.5256 5.76488 13.5256 2.56647 13.5256C1.58631 13.5256 0.8125 12.7518 0.8125 11.7717C0.8125 10.1725 0.8125 8.57325 0.8125 7.02563ZM10.0982 3.62087C9.78869 3.62087 9.42758 3.67246 9.16964 3.82722C8.5506 4.13675 8.24107 4.60103 8.03472 5.22008C7.98313 5.37484 8.08631 5.47802 8.24107 5.42643C8.34425 5.42643 8.49901 5.37484 8.60218 5.37484C9.01488 5.37484 9.16964 5.58119 9.06647 5.9423C9.06647 5.99389 9.06647 5.99389 9.01488 6.04548C8.80853 6.40659 8.65377 6.7677 8.39583 7.07722C8.24107 7.33516 8.08631 7.54151 7.93155 7.74786C7.82837 7.85103 7.77679 7.85103 7.7252 7.69627C7.67361 7.59309 7.67361 7.54151 7.62202 7.43833C7.41567 6.61294 7.20933 5.83913 7.00298 5.01373C6.8998 4.65262 6.79663 4.3431 6.69345 3.98198C6.59028 3.67246 6.22917 3.56929 5.91964 3.62087C5.55853 3.77563 5.24901 3.9304 4.99107 4.13675C4.4752 4.54944 3.95933 4.96214 3.44345 5.37484C3.13393 5.63278 3.2371 5.68437 3.44345 5.99389C3.54663 6.14865 3.6498 6.14865 3.80456 6.04548C3.95933 5.9423 4.11409 5.83913 4.32044 5.73595C4.62996 5.58119 4.78472 5.63278 4.93948 5.9423C5.04266 6.14865 5.14583 6.40659 5.19742 6.61294C5.45536 7.33516 5.66171 8.10897 5.91964 8.83119C6.0744 9.24389 6.28075 9.65659 6.53869 10.0177C6.79663 10.3788 6.95139 10.482 7.51885 10.3272C7.67361 10.2756 7.87996 10.1725 8.03472 10.1209C8.60218 9.81135 9.01488 9.34706 9.42758 8.83119C9.99504 8.16056 10.4593 7.48992 10.872 6.71611C11.2331 6.09706 11.4911 5.42643 11.3879 4.65262C11.3363 4.23992 11.1815 3.87881 10.8204 3.67246C10.5109 3.62087 10.3046 3.62087 10.0982 3.62087Z" fill="#52BAFF"/>
</svg>
